<svg width="1920" height="447" viewBox="0 0 1920 447" fill="none" xmlns="http://www.w3.org/2000/svg">
<path d="M0 446.999H1920V253.528C1855.42 225.315 1748.03 212.375 1638.23 199.144C1550.43 188.564 1461.1 177.799 1390.88 158.891C1323.5 140.746 1268.26 113.058 1213.98 85.8501C1124.52 41.0038 1037.66 -2.53728 903.295 0.115327C764.518 2.85504 684.932 50.8488 603.281 100.088C556.653 128.207 509.351 156.732 449.968 177.467C398.178 195.55 331.641 208.548 266.051 221.36C154.065 243.236 44.8409 264.572 16.493 309.762C11.5186 317.692 5.93031 327.087 0 337.623V446.999Z" fill="#F1E8EB" fill-opacity="0.32"/>
</svg>
