<svg width="22" height="22" viewBox="0 0 22 22" fill="none" xmlns="http://www.w3.org/2000/svg">
<path d="M2.87109 7.98051C1.28795 7.98051 0 9.24111 0 10.7906C0 12.3402 1.28795 13.6008 2.87109 13.6008C4.45424 13.6008 5.74219 12.3402 5.74219 10.7906C5.74219 9.24111 4.45424 7.98051 2.87109 7.98051ZM2.87109 11.995C2.19259 11.995 1.64062 11.4547 1.64062 10.7906C1.64062 10.1265 2.19259 9.5863 2.87109 9.5863C3.5496 9.5863 4.10156 10.1265 4.10156 10.7906C4.10156 11.4547 3.5496 11.995 2.87109 11.995Z" fill="#333333" fill-opacity="0.2"/>
<path d="M10.8711 7.98051C9.28795 7.98051 8 9.24111 8 10.7906C8 12.3402 9.28795 13.6008 10.8711 13.6008C12.4542 13.6008 13.7422 12.3402 13.7422 10.7906C13.7422 9.24111 12.4542 7.98051 10.8711 7.98051ZM10.8711 11.995C10.1926 11.995 9.64062 11.4547 9.64062 10.7906C9.64062 10.1265 10.1926 9.5863 10.8711 9.5863C11.5496 9.5863 12.1016 10.1265 12.1016 10.7906C12.1016 11.4547 11.5496 11.995 10.8711 11.995Z" fill="#333333"/>
<path d="M18.8711 7.98051C17.2879 7.98051 16 9.24111 16 10.7906C16 12.3402 17.2879 13.6008 18.8711 13.6008C20.4542 13.6008 21.7422 12.3402 21.7422 10.7906C21.7422 9.24111 20.4542 7.98051 18.8711 7.98051ZM18.8711 11.995C18.1926 11.995 17.6406 11.4547 17.6406 10.7906C17.6406 10.1265 18.1926 9.5863 18.8711 9.5863C19.5496 9.5863 20.1016 10.1265 20.1016 10.7906C20.1016 11.4547 19.5496 11.995 18.8711 11.995Z" fill="#333333" fill-opacity="0.2"/>
<path d="M2.87109 15.8106C1.28795 15.8106 0 17.0712 0 18.6207C0 20.1703 1.28795 21.4309 2.87109 21.4309C4.45424 21.4309 5.74219 20.1703 5.74219 18.6207C5.74219 17.0712 4.45424 15.8106 2.87109 15.8106ZM2.87109 19.8251C2.19259 19.8251 1.64062 19.2848 1.64062 18.6207C1.64062 17.9566 2.19259 17.4164 2.87109 17.4164C3.5496 17.4164 4.10156 17.9566 4.10156 18.6207C4.10156 19.2848 3.5496 19.8251 2.87109 19.8251Z" fill="#333333"/>
<path d="M10.8711 15.8106C9.28795 15.8106 8 17.0712 8 18.6207C8 20.1703 9.28795 21.4309 10.8711 21.4309C12.4542 21.4309 13.7422 20.1703 13.7422 18.6207C13.7422 17.0712 12.4542 15.8106 10.8711 15.8106ZM10.8711 19.8251C10.1926 19.8251 9.64062 19.2848 9.64062 18.6207C9.64062 17.9566 10.1926 17.4164 10.8711 17.4164C11.5496 17.4164 12.1016 17.9566 12.1016 18.6207C12.1016 19.2848 11.5496 19.8251 10.8711 19.8251Z" fill="#333333" fill-opacity="0.2"/>
<path d="M18.8711 15.8106C17.2879 15.8106 16 17.0712 16 18.6207C16 20.1703 17.2879 21.4309 18.8711 21.4309C20.4542 21.4309 21.7422 20.1703 21.7422 18.6207C21.7422 17.0712 20.4542 15.8106 18.8711 15.8106ZM18.8711 19.8251C18.1926 19.8251 17.6406 19.2848 17.6406 18.6207C17.6406 17.9566 18.1926 17.4164 18.8711 17.4164C19.5496 17.4164 20.1016 17.9566 20.1016 18.6207C20.1016 19.2848 19.5496 19.8251 18.8711 19.8251Z" fill="#333333"/>
<path d="M2.87109 0.150391C1.28795 0.150391 0 1.41099 0 2.96052C0 4.51005 1.28795 5.77064 2.87109 5.77064C4.45424 5.77064 5.74219 4.51005 5.74219 2.96052C5.74219 1.41099 4.45424 0.150391 2.87109 0.150391ZM2.87109 4.16486C2.19259 4.16486 1.64062 3.62462 1.64062 2.96052C1.64062 2.29642 2.19259 1.75618 2.87109 1.75618C3.5496 1.75618 4.10156 2.29642 4.10156 2.96052C4.10156 3.62462 3.5496 4.16486 2.87109 4.16486Z" fill="#333333"/>
<path d="M10.8711 0.150391C9.28795 0.150391 8 1.41099 8 2.96052C8 4.51005 9.28795 5.77064 10.8711 5.77064C12.4542 5.77064 13.7422 4.51005 13.7422 2.96052C13.7422 1.41099 12.4542 0.150391 10.8711 0.150391ZM10.8711 4.16486C10.1926 4.16486 9.64062 3.62462 9.64062 2.96052C9.64062 2.29642 10.1926 1.75618 10.8711 1.75618C11.5496 1.75618 12.1016 2.29642 12.1016 2.96052C12.1016 3.62462 11.5496 4.16486 10.8711 4.16486Z" fill="#333333" fill-opacity="0.2"/>
<path d="M18.8711 0.150391C17.2879 0.150391 16 1.41099 16 2.96052C16 4.51005 17.2879 5.77064 18.8711 5.77064C20.4542 5.77064 21.7422 4.51005 21.7422 2.96052C21.7422 1.41099 20.4542 0.150391 18.8711 0.150391ZM18.8711 4.16486C18.1926 4.16486 17.6406 3.62462 17.6406 2.96052C17.6406 2.29642 18.1926 1.75618 18.8711 1.75618C19.5496 1.75618 20.1016 2.29642 20.1016 2.96052C20.1016 3.62462 19.5496 4.16486 18.8711 4.16486Z" fill="#333333"/>
</svg>
