<svg width="418" height="164" viewBox="0 0 418 164" fill="none" xmlns="http://www.w3.org/2000/svg">
<g filter="url(#filter0_d)">
<path d="M146.621 136.012C138.661 135.662 127.268 130.301 118.527 120.527C115.712 117.372 112.821 113.067 117.66 109.856C121.924 107.034 124.983 109.997 127.917 113.422C140.74 128.376 161.517 129.251 175.988 115.758C176.906 114.901 177.817 114.032 178.685 113.134C181.338 110.392 184.229 106.972 188.543 109.946C193.581 113.417 190.416 117.401 187.594 120.51C178.673 130.453 167.379 136.39 146.621 136.012Z" fill="#2A993A"/>
<path d="M35.5589 22.9515C44.1181 22.2009 51.8282 25.299 59.1824 29.2774C63.0843 31.3823 64.8886 34.7456 62.3664 38.3742C59.9816 41.8109 56.3169 40.4283 53.2641 38.6789C40.8467 31.5685 28.5043 31.0832 16.1993 38.8538C12.7782 41.0095 9.65044 40.7161 7.19694 37.7252C4.64355 34.5933 6.92226 32.3304 9.4257 30.3891C16.8362 24.6275 25.5639 22.4492 35.5589 22.9515Z" fill="#2A993A"/>
<path fill-rule="evenodd" clip-rule="evenodd" d="M269.01 140.058C281.777 124.821 284.805 107.079 283.93 92.0911C283.904 91.2454 283.879 90.4175 283.854 89.6064C283.529 78.9817 283.292 71.2236 281.396 63.6215C280.613 60.6081 279.507 57.671 278.093 54.852C275.334 49.2258 271.257 45.6368 263.522 45.9866C251.71 46.5171 241.004 53.7629 236.477 64.9814C234.253 70.4967 234.541 76.1212 234.83 81.755C234.869 82.5254 234.908 83.296 234.942 84.0665C235.048 86.6172 234.948 89.2413 231.695 89.7605C228.599 90.2571 226.888 87.8982 226.151 85.6015C225.468 83.3156 225.197 80.9453 225.346 78.5814C225.439 76.7601 225.679 74.9408 225.918 73.1231C226.24 70.6775 226.562 68.2348 226.526 65.794C226.47 61.9849 224.79 58.6893 219.446 58.9151C214.102 59.1408 214.002 62.5944 214.183 66.0932C214.539 72.8198 213.721 79.4109 211.018 85.6861C209.664 88.835 207.385 91.8371 203.09 91.6114C199.252 91.4097 198.21 88.528 197.262 85.9038C197.148 85.5908 197.037 85.2814 196.922 84.9807C194.676 79.101 194.998 73.0039 195.319 66.9048C195.337 66.559 195.355 66.2132 195.373 65.8674C195.554 62.4307 195.348 58.853 190.048 58.6668C185.384 58.4918 183.137 61.3247 182.819 64.8742C181.994 73.9202 181.957 83.0113 185.94 91.5945C191.084 102.695 203.683 106.063 214.464 98.8346C217.742 96.6394 219.396 96.995 222.449 98.6258C227.775 101.47 233.562 101.25 239.049 98.6935C239.516 98.4761 239.964 98.2322 240.402 97.9939C242.545 96.828 244.449 95.7922 247.072 98.6032C249.806 101.549 250.699 103.919 248.47 107.429C245.923 111.431 241.809 113.541 237.718 115.64C237.026 115.995 236.336 116.349 235.653 116.712C234.835 117.148 234.012 117.575 233.19 118.002C228.739 120.312 224.31 122.611 220.864 126.164C210.519 136.83 215.532 151.457 230.927 154.278C246.878 157.179 259.583 151.293 269.01 140.058ZM253.914 135.888C267.705 124.217 271.806 109.427 270.932 93.0617C271.253 84.0292 270.309 74.9963 268.123 66.1778C268.104 66.1011 268.085 66.0242 268.067 65.9471C267.221 62.465 266.272 58.5602 261.936 57.826C256.923 56.9795 253.745 60.5065 251.204 63.8923C244.518 72.848 246.21 81.3466 256.199 90.4715C265.594 99.0152 265.594 107.948 256.373 116.678C252.316 120.527 247.527 123.399 242.533 126.114C239.374 127.84 236.227 129.59 233.206 131.497C229.703 133.709 228.605 136.869 230.596 140.255C232.438 143.353 235.915 143.98 239.555 143.077C244.923 141.785 249.855 139.315 253.914 135.888Z" fill="#FA5C81"/>
<path fill-rule="evenodd" clip-rule="evenodd" d="M53.6385 82.2043V74.3039C53.6403 73.4574 53.6563 72.6098 53.6723 71.7618C53.7105 69.7384 53.7488 67.7126 53.5948 65.6925C52.8019 54.711 46.5777 47.104 37.7126 46.0657C33.8486 45.5821 29.9169 45.7958 26.1449 46.6944C22.3729 47.5929 18.8354 49.1585 15.737 51.3006C12.6385 53.4427 10.0407 56.1189 8.09365 59.1742C6.14661 62.2296 4.88905 65.6035 4.39364 69.101C2.99434 78.9119 5.58029 88.3565 8.15034 97.743L8.21436 97.9769C9.23197 101.594 12.4159 102.762 16.3303 101.735C20.126 100.759 20.9751 98.0898 20.3508 94.9635C20.0557 93.4134 19.6833 91.8702 19.311 90.3277C18.6749 87.6923 18.0392 85.0588 17.7911 82.3962C17.7075 81.4896 17.602 80.5783 17.4962 79.6648C16.8908 74.4376 16.2775 69.1414 19.7265 64.2704C22.8917 59.8011 27.7487 57.9445 33.2925 58.5709C38.1411 59.1174 39.0159 62.8447 39.8544 66.4172C39.9164 66.681 39.9781 66.944 40.0412 67.2049C40.8687 70.9499 41.031 74.7902 40.5219 78.5815C38.8176 94.2355 46.4715 103.231 64.4951 96.916C67.2209 95.9641 68.3324 97.0485 69.4999 98.1877C69.7791 98.46 70.0614 98.7355 70.3698 98.987C84.3853 110.392 105.268 109.032 117.623 95.8607C128.811 83.9367 126.688 61.9116 113.447 52.5271C96.9775 40.8571 68.9401 51.2009 63.2652 71.1494C62.2226 74.8175 61.2924 78.5081 61.436 82.4018C61.5359 85.0259 59.7005 87.238 56.7101 87.1364C53.6385 87.0292 53.6385 84.4052 53.6385 82.2043ZM74.2526 79.4957C74.1839 89.1736 81.0762 94.766 93.2688 94.924C103.994 95.065 111.773 88.0393 112.079 77.9268C112.372 68.0175 105.43 60.3428 96.1405 60.309C84.4037 60.309 74.3275 69.1179 74.2526 79.4957Z" fill="#FA5C81"/>
<path fill-rule="evenodd" clip-rule="evenodd" d="M372.95 104.653C393.502 111.594 413.535 96.6001 413.411 74.7894C413.336 61.1555 407.286 51.6864 396.373 48.1425C382.957 43.769 369.71 46.9687 359.989 57.2279C352.572 65.0493 350.937 74.1686 353.565 84.0046C354.42 87.2212 353.609 90.4604 350.325 91.1714C346.973 91.8823 346.098 89.3105 345.301 86.9687C345.13 86.4664 344.962 85.9747 344.775 85.5283C344.566 85.0436 344.592 84.477 344.618 83.9019C344.637 83.4992 344.656 83.0924 344.594 82.7067C344.412 81.5815 344.23 80.4563 344.049 79.3311C342.752 71.3033 341.456 63.2765 340.093 55.2585C339.262 50.3997 335.841 47.6967 330.672 46.7938C325.678 45.936 321.982 48.0973 318.81 51.2123C315.143 54.8262 314.178 59.3955 313.213 63.9642C313.139 64.311 313.066 64.6578 312.992 65.0042C312.77 66.0417 312.558 67.0826 312.345 68.1241C311.081 74.3217 309.814 80.5375 306.505 86.1659C306.391 86.3607 306.27 86.5756 306.144 86.8014C304.839 89.1326 302.889 92.6154 299.906 86.956C298.346 84.0046 294.999 84.1231 292.246 84.9978C289.231 85.9571 288.076 88.3893 288.301 91.3576C288.744 97.0741 293.613 101.436 300.05 102.001C308.235 102.706 312.786 98.389 316.282 92.6668C321.47 84.1965 323.343 74.9078 324.591 65.433C324.62 65.2204 324.641 64.9799 324.665 64.7229C324.823 62.9606 325.051 60.4251 328.075 60.8339C330.072 61.1005 330.191 62.9409 330.301 64.646C330.324 64.9981 330.346 65.3445 330.385 65.6701C330.618 67.6395 330.843 69.6102 331.068 71.5811C331.788 77.889 332.507 84.1983 333.506 90.4716C334.867 99.004 341.685 104.974 349.801 101.425C357.54 98.0489 362.611 100.281 367.993 102.649C369.592 103.353 371.218 104.069 372.95 104.653ZM382.195 95.4659C392.052 95.6634 401.485 85.043 401.548 73.7115C401.623 64.3383 394.937 56.6297 386.546 56.4661C375.44 56.1839 365.114 65.7378 365.17 76.2171C365.226 86.3183 373.155 95.2853 382.195 95.4659Z" fill="#FA5C81"/>
<path fill-rule="evenodd" clip-rule="evenodd" d="M141.651 25.9197C132.829 38.7748 131.375 53.1478 130.913 67.724C130.882 77.5544 131.849 87.2436 136.151 96.363C139.647 103.767 145.915 108.287 154.948 108.513C162.665 108.727 170.069 102.779 173.091 94.6192C177.373 83.0395 176.293 71.742 170.05 60.941C168.096 57.5608 167.553 55.4333 172.104 53.0011C177.819 49.9125 182.168 45.125 184.409 39.4576C187.887 31.0155 186.17 22.658 179.546 17.139C173.565 12.1618 163.626 11.3548 155.086 15.1413C149.554 17.4919 144.89 21.2341 141.651 25.9197ZM157.296 28.7413C145.54 39.2376 142.987 52.5835 142.899 69.8403C142.749 76.4128 143.984 82.951 146.539 89.1059C148.05 92.6273 149.898 96.7806 155.229 95.8777C159.993 95.0707 161.603 91.1544 161.959 87.2042C162.883 77.2892 161.541 67.9498 154.468 59.598C148.362 52.4256 149.592 49.7676 158.838 45.6933C165.031 42.9677 171.168 40.1348 173.197 33.3292C174.189 30.0223 173.727 27.37 170.893 24.9435C168.008 22.4772 165.386 23.7508 162.858 24.9789C162.655 25.0771 162.454 25.1751 162.253 25.2708C160.422 26.2035 158.752 27.3727 157.296 28.7413Z" fill="#FA5C81"/>
<path fill-rule="evenodd" clip-rule="evenodd" d="M317.4 11.1629C317.612 2.9352 313.723 0.0572167 304.839 0.000785241C286.135 -0.112078 272.094 11.9529 271.414 28.73C271.108 36.8731 274.392 41.3311 282.346 41.4327C303.528 41.6979 316.944 29.1024 317.4 11.1629ZM287.678 30.265C295.132 29.8022 304.222 22.1163 304.958 15.5928C305.47 11.0783 303.884 9.74652 299.24 10.8074C291.461 12.5455 284.906 19.402 283.595 26.2753C282.908 29.853 284.419 30.4625 287.678 30.265Z" fill="#2A993A"/>
<path d="M383.801 70.1337C387.609 70.3651 390.387 72.1483 390.169 75.3705C389.926 78.9934 386.954 81.5159 382.796 81.6401C378.426 81.7642 376.634 78.6041 376.784 75.4326C376.953 71.9169 379.874 70.0829 383.801 70.1337Z" fill="#2A973A"/>
</g>
<defs>
<filter id="filter0_d" x="0" y="0" width="417.411" height="163.013" filterUnits="userSpaceOnUse" color-interpolation-filters="sRGB">
<feFlood flood-opacity="0" result="BackgroundImageFix"/>
<feColorMatrix in="SourceAlpha" type="matrix" values="0 0 0 0 0 0 0 0 0 0 0 0 0 0 0 0 0 0 127 0"/>
<feOffset dy="4"/>
<feGaussianBlur stdDeviation="2"/>
<feColorMatrix type="matrix" values="0 0 0 0 0 0 0 0 0 0 0 0 0 0 0 0 0 0 0.25 0"/>
<feBlend mode="normal" in2="BackgroundImageFix" result="effect1_dropShadow"/>
<feBlend mode="normal" in="SourceGraphic" in2="effect1_dropShadow" result="shape"/>
</filter>
</defs>
</svg>
