<svg width="20" height="20" viewBox="0 0 20 20" fill="none" xmlns="http://www.w3.org/2000/svg">
<path d="M15.3302 0.615234H4.64932C2.07815 0.615578 0.61512 2.07883 0.615234 4.65024V15.3311C0.615578 17.9023 2.07883 19.3653 4.65024 19.3652H10.6311V12.1143H8.1958V9.27612H10.6311V7.18746C10.6311 4.76532 12.1098 3.44696 14.2704 3.44696C15.3053 3.44696 16.1946 3.52409 16.4539 3.55854V6.09009H14.964C13.7884 6.09009 13.5608 6.64867 13.5608 7.46853V9.27612H16.3715L16.0052 12.1143H13.5608V19.3652H15.3302C17.9017 19.3653 19.3651 17.9022 19.3652 15.3307V4.64932C19.365 2.07815 17.9016 0.61512 15.3302 0.615234Z" fill="#6C6C6C"/>
</svg>
